<svg xmlns="http://www.w3.org/2000/svg" width="47" height="47" viewBox="0 0 47 47" fill="none">
  <path
    d="M27.655 10.6607C28.2343 11.5263 28.5436 12.5439 28.5436 13.585C28.5433 13.8027 28.5295 14.0189 28.5027 14.2327H23.9277C23.5638 14.2327 23.2687 14.5273 23.2687 14.8906C23.2687 15.254 23.5638 15.5486 23.9277 15.5486H28.1608C27.8978 16.2001 27.5045 16.7988 26.9974 17.3051C26.0091 18.2918 24.6691 18.8469 23.2713 18.8487C22.2285 18.8487 21.2092 18.54 20.3422 17.9616C19.4752 17.3832 18.7994 16.5611 18.4004 15.5993C18.0013 14.6375 17.8969 13.5792 18.1003 12.5581C18.3038 11.5371 18.8059 10.5992 19.5432 9.86302C20.2806 9.12688 21.22 8.62556 22.2427 8.42246C23.2654 8.21936 24.3255 8.3236 25.2889 8.722C26.2523 9.12039 27.0757 9.79505 27.655 10.6607Z"
    fill="url(#paint0_linear_1252_1402)" />
  <path
    d="M10.09 30.0337C11.5682 30.0163 13.0426 29.8799 14.4989 29.6258C15.0393 29.5403 15.5336 29.4679 15.9883 29.4284C14.0112 28.1849 12.0341 27.4019 10.749 27.4019C10.5742 27.4019 10.4066 27.3326 10.283 27.2092C10.1594 27.0858 10.09 26.9184 10.09 26.7439C10.09 26.5694 10.1594 26.4021 10.283 26.2787C10.4066 26.1553 10.5742 26.086 10.749 26.086H10.751C14.1852 26.0873 22.6102 31.7023 22.6102 36.6133C22.6102 36.618 22.6129 36.6219 22.6129 36.6265V37.2864C-10.9187 44.5748 57.0598 44.9853 23.9309 37.2943V36.6133C23.9309 31.7023 32.356 26.7453 35.7902 26.7439H35.7922C35.967 26.7439 36.1346 26.8133 36.2582 26.9367C36.3818 27.0601 36.4512 27.2274 36.4512 27.4019C36.4512 27.5764 36.3818 27.7438 36.2582 27.8672C36.1346 27.9905 35.967 28.0599 35.7922 28.0599C34.5071 28.0599 32.53 28.8428 30.5529 30.0864C31.0076 30.1259 31.5019 30.1982 32.0423 30.2838C33.4986 30.5379 34.973 30.6743 36.4512 30.6917C41.137 30.6917 44.1949 22.0659 44.3267 21.6974C44.3752 21.5535 44.373 21.3972 44.3202 21.2548C44.2674 21.1123 44.1674 20.9922 44.0367 20.9144C43.9048 20.8356 43.7494 20.8056 43.5976 20.8297C43.4458 20.8537 43.3073 20.9303 43.2063 21.046C43.1931 21.0658 41.4797 22.8422 37.1762 22.0527C30.5312 20.8289 27.6907 28.3731 27.2999 28.8494C25.9924 29.9217 24.8563 31.1868 23.9309 32.6011V22.7626C26.3148 22.5922 28.5393 21.5049 30.1363 19.7298C31.7332 17.9546 32.5779 15.63 32.4925 13.2455C32.4071 10.861 31.3982 8.60264 29.6784 6.94589C27.9585 5.28913 25.6618 4.36328 23.2719 4.36328C20.882 4.36328 18.5853 5.28913 16.8655 6.94589C15.1456 8.60264 14.1368 10.861 14.0514 13.2455C13.966 15.63 14.8106 17.9546 16.4076 19.7298C18.0045 21.5049 20.2291 22.5922 22.6129 22.7626V32.6057C21.6872 31.1895 20.5502 29.9228 19.2413 28.8494C18.8505 27.7151 16.01 20.1709 9.36502 21.3947C5.06154 22.1843 3.34805 20.4078 3.33487 20.3881C3.23392 20.2723 3.09542 20.1958 2.94362 20.1717C2.79182 20.1477 2.63638 20.1777 2.50449 20.2565C2.37381 20.3342 2.27376 20.4544 2.221 20.5968C2.16824 20.7393 2.16595 20.8955 2.21452 21.0394C2.34633 21.4079 5.40423 30.0337 10.09 30.0337ZM16.6816 13.5847C16.6816 12.2834 17.0681 11.0113 17.7923 9.92932C18.5164 8.84731 19.5457 8.00399 20.7499 7.50599C21.9541 7.008 23.2792 6.8777 24.5576 7.13157C25.836 7.38545 27.0103 8.0121 27.932 8.93227C28.8536 9.85244 29.4813 11.0248 29.7356 12.3011C29.9899 13.5774 29.8594 14.9004 29.3606 16.1027C28.8618 17.3049 28.0171 18.3325 26.9333 19.0555C25.8495 19.7785 24.5754 20.1643 23.2719 20.1643C21.5246 20.1624 19.8495 19.4686 18.614 18.2351C17.3785 17.0016 16.6835 15.3292 16.6816 13.5847Z"
    fill="url(#paint1_linear_1252_1402)" />
  <defs>
    <linearGradient id="paint0_linear_1252_1402" x1="23.2706" y1="4.36328" x2="23.2706" y2="42.9087"
      gradientUnits="userSpaceOnUse">
      <stop stop-color="#36FF93" />
      <stop offset="1" stop-color="#006EBE" />
    </linearGradient>
    <linearGradient id="paint1_linear_1252_1402" x1="23.2706" y1="4.36328" x2="23.2706" y2="42.9087"
      gradientUnits="userSpaceOnUse">
      <stop stop-color="#36FF93" />
      <stop offset="1" stop-color="#006EBE" />
    </linearGradient>
  </defs>
</svg>